PathFileType	4	(X/Y/Z)	./resultDataOpenSim/trcMotMarkerGrf/sub09/qtm-04-03.trc
DataRate	CameraRate	NumFrames	NumMarkers	Units	OrigDataRate	OrigDataStartFrame	OrigNumFrames
250.000000	250.000000	13	24	m	250.000000	123	491
Frame#	Time	L.Toe.Tip			R.Toe.Tip			L.Ankle.Lat			R.Ankle.Lat			L.Ankle.Med			R.Ankle.Med			L.Heel			R.Heel			L.Knee.Lat			R.Knee.Lat			L.Knee.Med			R.Knee.Med			L.Thigh.Upper			R.Thigh.Upper			L.ASIS			R.ASIS			V.Sacral			L.Acromium			R.Acromium			C7			L.Elbow			R.Elbow			L.Wrist.Lat			R.Wrist.Lat
		X1	Y1	Z1	X2	Y2	Z2	X3	Y3	Z3	X4	Y4	Z4	X5	Y5	Z5	X6	Y6	Z6	X7	Y7	Z7	X8	Y8	Z8	X9	Y9	Z9	X10	Y10	Z10	X11	Y11	Z11	X12	Y12	Z12	X13	Y13	Z13	X14	Y14	Z14	X15	Y15	Z15	X16	Y16	Z16	X17	Y17	Z17	X18	Y18	Z18	X19	Y19	Z19	X20	Y20	Z20	X21	Y21	Z21	X22	Y22	Z22	X23	Y23	Z23	X24	Y24	Z24

123	0.488	-0.291112	0.081612324	0.025617821	-0.61009853	0.040020285	0.1540757	-0.43975503	0.10807644	-0.0032636473	-0.75536787	0.059139443	0.18699349	-0.41380501	0.12401156	0.09039931	-0.74458778	0.093026069	0.093488339	-0.506094	0.065471184	0.048622113	-0.8260243	0.038374409	0.13831322	-0.3857564	0.52341965	-0.043623276	-0.59420237	0.48789523	0.23669241	-0.38196046	0.51933496	0.083004616	-0.62155248	0.48026443	0.10844977	-0.57481122	0.89653821	-0.084724626	-0.61698928	0.89906968	0.28776123	-0.50701806	0.97839738	-0.015896343	-0.51342827	0.97966922	0.22215074	-0.67883289	1.0417358	0.089619459	-0.49253205	1.4280404	-0.067613192	-0.5186045	1.4418696	0.26170429	-0.57537418	1.4867592	0.094042311	-0.6523762	1.0982266	-0.11129855	-0.66201498	1.0963182	0.34452537	-0.56068917	0.85534982	-0.15710291	-0.44816896	0.91385234	0.32655204
124	0.492	-0.27176803	0.08246504	0.02654012	-0.6100973	0.039976813	0.1540979	-0.42102691	0.10561188	-0.0028970418	-0.75518206	0.059157136	0.18691884	-0.39567166	0.12255865	0.09094383	-0.74441412	0.093072782	0.093449	-0.48620262	0.061515387	0.049231268	-0.82597871	0.038508856	0.13822497	-0.37889858	0.52261358	-0.043656861	-0.59410532	0.4876342	0.2365751	-0.37473253	0.51871295	0.083075621	-0.61920077	0.47975195	0.10855514	-0.56843638	0.89555536	-0.08472955	-0.61111676	0.89846497	0.28786974	-0.50046763	0.97758473	-0.015810316	-0.50722899	0.97890977	0.22224996	-0.67234356	1.0409617	0.089246787	-0.48648576	1.4272022	-0.067791096	-0.51230618	1.4411569	0.26156	-0.56916426	1.485989	0.093929944	-0.64759781	1.0981096	-0.11154514	-0.65528077	1.0953119	0.34495854	-0.55753082	0.85484858	-0.1580798	-0.44011871	0.91418758	0.32584483
125	0.496	-0.25260581	0.083453223	0.027517451	-0.61010644	0.039939841	0.15411726	-0.40239153	0.10335212	-0.0025802622	-0.75500555	0.059180741	0.18681764	-0.37769411	0.12125598	0.091431754	-0.74422255	0.093120366	0.093376369	-0.46645945	0.057903657	0.049690278	-0.82594255	0.038648382	0.13809456	-0.37199597	0.52152822	-0.043606235	-0.59516241	0.48783079	0.2367276	-0.3679375	0.5178202	0.083029046	-0.61675064	0.47924063	0.10864907	-0.56194372	0.89446756	-0.08469587	-0.60517625	0.89779269	0.28794404	-0.49393926	0.9766458	-0.015727575	-0.50103031	0.97810208	0.22236489	-0.66545837	1.0400951	0.089553313	-0.4804395	1.4262765	-0.067984111	-0.50600696	1.4403566	0.26141379	-0.56298278	1.4851498	0.093840195	-0.64275032	1.0979092	-0.11180404	-0.64852274	1.094197	0.34534648	-0.55443523	0.85425716	-0.15915099	-0.43209697	0.91442323	0.32514199
126	0.5	-0.2336429	0.084610017	0.028537329	-0.61012022	0.039908135	0.15413736	-0.3838786	0.1013036	-0.002295524	-0.75489926	0.059224505	0.18670271	-0.35989411	0.12005585	0.091845531	-0.7440237	0.093161408	0.093256154	-0.44695912	0.054624639	0.049826928	-0.82591158	0.038790407	0.13792741	-0.36487133	0.52005631	-0.043394422	-0.59560955	0.48807583	0.23716138	-0.36139891	0.51670341	0.082942293	-0.61420975	0.47870973	0.10872078	-0.55548526	0.89325102	-0.084647789	-0.59915392	0.89703894	0.28797748	-0.48742966	0.97558451	-0.015638192	-0.49482863	0.97724284	0.22249464	-0.65861508	1.0390905	0.089985536	-0.4744009	1.4252658	-0.068188455	-0.49968679	1.4394627	0.2612677	-0.55681339	1.4842354	0.093759765	-0.63786736	1.0976317	-0.11207545	-0.64155727	1.092963	0.34558194	-0.55144046	0.85356457	-0.16033005	-0.42411545	0.91456322	0.32444947
127	0.504	-0.21491378	0.085954349	0.029578861	-0.61013668	0.039873539	0.15415914	-0.36552103	0.099471846	-0.0020228706	-0.75487429	0.05928796	0.18658346	-0.34227425	0.11898098	0.092195215	-0.7438463	0.093186197	0.093072376	-0.42771034	0.05161705	0.049716113	-0.82588384	0.038928787	0.13772652	-0.35748571	0.51814157	-0.042910494	-0.59411533	0.48791045	0.23748276	-0.35498946	0.51540077	0.082873238	-0.61163808	0.47812491	0.1087446	-0.54911063	0.89189977	-0.084591052	-0.59306248	0.89620003	0.28797772	-0.48092779	0.97440773	-0.015534463	-0.48861345	0.9763259	0.22264472	-0.65199703	1.0379275	0.090181023	-0.46837015	1.424177	-0.068391413	-0.49335312	1.4384719	0.26112559	-0.55062547	1.4832266	0.093670134	-0.63296146	1.0972718	-0.11236386	-0.63438322	1.0916259	0.34567166	-0.54846162	0.85279206	-0.16155921	-0.41617972	0.91461246	0.32376628
128	0.508	-0.1964581	0.087479401	0.030626568	-0.61015427	0.03982679	0.15418297	-0.3473621	0.097846094	-0.0017618906	-0.75490256	0.05935749	0.18646218	-0.32485503	0.11805877	0.092483117	-0.74371942	0.093189619	0.092825903	-0.40865039	0.04880917	0.049568738	-0.82586079	0.039062716	0.13749352	-0.35007203	0.51593754	-0.042222122	-0.59112675	0.48707679	0.23736335	-0.34866764	0.51392117	0.082852424	-0.60911075	0.47746403	0.1087088	-0.54275905	0.8904368	-0.084513104	-0.58693981	0.89529378	0.28796592	-0.47442326	0.97312053	-0.015416718	-0.48237789	0.97534402	0.22281864	-0.64554534	1.0366349	0.090107767	-0.46234417	1.4230151	-0.068581382	-0.48703274	1.437389	0.26099357	-0.54440317	1.4821134	0.093564121	-0.62803211	1.0968228	-0.11266911	-0.62722678	1.0902174	0.34575307	-0.5453958	0.85196636	-0.16277868	-0.40828933	0.91457422	0.32309748
129	0.512	-0.17830346	0.089180998	0.031662024	-0.61017336	0.03976233	0.15420983	-0.32945305	0.096399973	-0.0015275865	-0.75495784	0.059421594	0.18633422	-0.30767556	0.11728785	0.092702192	-0.74363175	0.093179893	0.092554054	-0.3897541	0.046174182	0.049479476	-0.82584173	0.039197688	0.13723567	-0.34295735	0.51372874	-0.041565757	-0.58781722	0.4858005	0.23694685	-0.34242956	0.51226522	0.082892784	-0.60660199	0.47676869	0.10865708	-0.53635291	0.88889196	-0.084399186	-0.58083798	0.89434787	0.2879744	-0.46790581	0.97173168	-0.015289882	-0.47611809	0.97429586	0.22301049	-0.63914443	1.0352534	0.089858371	-0.456318	1.4217778	-0.068757043	-0.48072792	1.4362221	0.26087333	-0.53815428	1.4809035	0.093447546	-0.62307693	1.0962848	-0.11298614	-0.62027322	1.0887541	0.34593402	-0.54220813	0.85109693	-0.16397693	-0.40043747	0.91444091	0.32244267
130	0.516	-0.16047083	0.091068112	0.032648396	-0.61019525	0.039683911	0.15424089	-0.31183441	0.095117893	-0.0013331944	-0.75501558	0.059483301	0.18619788	-0.29077171	0.11663781	0.092847978	-0.7435303	0.093173358	0.092311723	-0.37105175	0.043714681	0.049427623	-0.82582203	0.03934036	0.13696521	-0.33625431	0.51167554	-0.041103369	-0.58456644	0.48457111	0.23661295	-0.33626765	0.51044289	0.082997917	-0.60396675	0.47613081	0.10865449	-0.5298732	0.88727316	-0.084249848	-0.57480233	0.89337255	0.2880371	-0.46136636	0.97025643	-0.015156248	-0.46983076	0.97318988	0.2232098	-0.63268615	1.0337715	0.089584232	-0.45027251	1.4204613	-0.068934362	-0.47442218	1.434974	0.26075811	-0.53189331	1.4796068	0.093326268	-0.61809025	1.0956609	-0.11330996	-0.61350412	1.0872263	0.34620042	-0.53892202	0.85017712	-0.16517021	-0.39261733	0.91419836	0.32179308
131	0.52	-0.14297932	0.093138531	0.033545777	-0.61021764	0.039604342	0.15428103	-0.29452538	0.094006371	-0.0011818248	-0.75503872	0.059562023	0.18606523	-0.27416362	0.11607638	0.092925225	-0.74337555	0.093176574	0.092127605	-0.35258981	0.041432768	0.049380095	-0.82579788	0.039494086	0.13669056	-0.32984733	0.50973606	-0.04083372	-0.58115224	0.48366079	0.23656827	-0.33015818	0.50846787	0.08316468	-0.60110889	0.47558622	0.10870942	-0.52335676	0.88556808	-0.084078536	-0.56889255	0.89237313	0.28820135	-0.45480134	0.9687102	-0.015013059	-0.46351126	0.97203454	0.2234098	-0.62602089	1.032124	0.08962622	-0.44417726	1.419067	-0.06913145	-0.46811115	1.4336444	0.26064075	-0.52562915	1.4782266	0.093201993	-0.61306658	1.0949514	-0.11363603	-0.60678988	1.0856164	0.34647374	-0.53556551	0.84919531	-0.1663649	-0.38483135	0.91383955	0.32114801
132	0.524	-0.12584581	0.095359443	0.034343264	-0.61023335	0.039538486	0.15434312	-0.2775333	0.093067803	-0.0010694724	-0.75499314	0.059680818	0.18595876	-0.25785629	0.11561309	0.092966549	-0.74317105	0.093181593	0.091997502	-0.33441169	0.039330944	0.049316444	-0.82576874	0.039658831	0.13641212	-0.32359098	0.50779934	-0.04069419	-0.57760549	0.48298204	0.23674798	-0.32406885	0.5063487	0.083381311	-0.59812111	0.47506583	0.10876524	-0.51683645	0.88376769	-0.083897578	-0.56320355	0.89138341	0.28853398	-0.44821297	0.96710206	-0.014856652	-0.45715023	0.97082741	0.22360941	-0.61898779	1.0302515	0.090429282	-0.43803312	1.4175976	-0.069346599	-0.46179161	1.4322344	0.26052044	-0.51936405	1.4767656	0.093076995	-0.60800544	1.0941553	-0.11396256	-0.60003677	1.0839224	0.34669872	-0.53215196	0.84814193	-0.16755883	-0.37709518	0.91337165	0.32052481
133	0.528	-0.10909483	0.09767237	0.03505972	-0.61023519	0.03949854	0.15444138	-0.26086489	0.092284506	-0.00099500603	-0.75487893	0.05984574	0.18589446	-0.24184899	0.11529404	0.093026572	-0.74294246	0.093179498	0.09190915	-0.31655447	0.03741388	0.04922344	-0.82573552	0.039833273	0.13612821	-0.31739938	0.50580725	-0.040645165	-0.57433441	0.48227658	0.23694961	-0.31798006	0.50409237	0.083629264	-0.59520223	0.47447309	0.10875057	-0.5103108	0.88187755	-0.083712398	-0.55776229	0.89042668	0.28904724	-0.44160299	0.96543548	-0.014687469	-0.45073881	0.96956199	0.22380817	-0.61162399	1.0281696	0.091996191	-0.43188668	1.4160529	-0.069562863	-0.45545217	1.4307442	0.26040024	-0.51309431	1.4752281	0.092951495	-0.60291041	1.0932739	-0.11429034	-0.59323288	1.0821537	0.34686859	-0.52869509	0.8470159	-0.16875814	-0.36944084	0.91281272	0.31996165
134	0.532	-0.092754631	0.10001435	0.035718678	-0.61022394	0.039488792	0.1545759	-0.24452879	0.091637014	-0.00096265396	-0.75474068	0.060033131	0.18587039	-0.226153	0.11513162	0.093124785	-0.74271435	0.093172016	0.091854619	-0.29905098	0.035678431	0.049094534	-0.82570183	0.040015431	0.13584446	-0.31119604	0.5037709	-0.040665638	-0.57169355	0.48135378	0.2370247	-0.31189057	0.50171233	0.083892345	-0.5924549	0.47377096	0.10862532	-0.50376741	0.87991382	-0.083520075	-0.55240664	0.88944748	0.28961987	-0.43497145	0.96371329	-0.014512948	-0.44427623	0.96823873	0.22400066	-0.60427156	1.0259938	0.093579682	-0.42577305	1.4144339	-0.069768341	-0.44909416	1.4291735	0.26028279	-0.50681462	1.4736192	0.092820615	-0.59779145	1.092313	-0.11460668	-0.58639878	1.0803137	0.34699521	-0.52520492	0.84582527	-0.16997424	-0.36190107	0.91217651	0.31949324
135	0.536	-0.076842607	0.10233538	0.036333248	-0.61021334	0.039496138	0.15472417	-0.22853761	0.091117174	-0.00097330905	-0.75464772	0.060194979	0.18587084	-0.21080471	0.11506673	0.093216978	-0.74250021	0.093170819	0.09183048	-0.28193233	0.034111705	0.048919709	-0.82567598	0.040204776	0.13557785	-0.30488107	0.50172344	-0.040718933	-0.56971681	0.48018858	0.2369498	-0.30579155	0.49922974	0.08416708	-0.5897687	0.47299551	0.10842093	-0.49720034	0.87789333	-0.083312911	-0.54688895	0.88835063	0.29007449	-0.4283217	0.96194051	-0.014343201	-0.43776809	0.96685948	0.22417763	-0.59729393	1.0238638	0.094327534	-0.41967808	1.4127459	-0.069963548	-0.44273197	1.427524	0.26016465	-0.50052272	1.4719458	0.092680994	-0.59266912	1.0912827	-0.11487394	-0.57955401	1.0784001	0.34709074	-0.52165614	0.84458036	-0.17120434	-0.3544652	0.91145584	0.31909984
